<?xml version="1.0" standalone="no"?>
<!DOCTYPE svg PUBLIC "-//W3C//DTD SVG 20010904//EN"
 "http://www.w3.org/TR/2001/REC-SVG-20010904/DTD/svg10.dtd">
<svg version="1.0" xmlns="http://www.w3.org/2000/svg"
 width="305.000000pt" height="300.000000pt" viewBox="0 0 305.000000 300.000000"
 preserveAspectRatio="xMidYMid meet">

<g transform="translate(0.000000,300.000000) scale(0.100000,-0.100000)"
fill="#000000" stroke="none">
<path d="M1350 2860 c-607 -84 -1072 -523 -1185 -1120 -27 -138 -25 -371 4
-507 56 -267 171 -488 354 -680 269 -281 609 -426 997 -425 278 0 521 74 755
227 599 393 791 1197 434 1820 -199 347 -527 585 -922 666 -115 23 -334 33
-437 19z m433 -115 c313 -70 592 -256 777 -517 79 -111 156 -277 191 -415 57
-220 50 -481 -17 -693 -125 -398 -440 -713 -834 -838 -138 -43 -227 -56 -385
-56 -161 0 -249 13 -391 59 -371 121 -659 396 -804 765 -12 30 -33 102 -48
160 -23 93 -26 125 -26 280 0 133 4 195 18 260 55 253 168 462 351 645 195
196 417 311 695 361 97 17 378 11 473 -11z"/>
<path d="M1402 2609 c-76 -38 -120 -122 -108 -208 l6 -47 -237 -134 c-131 -73
-242 -135 -246 -138 -5 -2 -18 5 -30 16 -31 29 -70 42 -127 42 -62 0 -97 -13
-139 -53 -109 -104 -68 -290 75 -337 l37 -13 -6 -201 c-4 -110 -7 -238 -7
-282 0 -81 0 -82 -28 -89 -142 -35 -181 -258 -60 -348 40 -29 90 -47 132 -47
34 0 110 32 138 57 17 15 34 6 257 -128 l239 -144 4 -62 c3 -49 10 -72 33
-104 113 -160 365 -84 365 109 l0 50 242 136 243 137 36 -20 c127 -72 282 2
305 146 12 78 -36 172 -107 209 l-29 15 0 287 1 287 43 26 c48 30 96 111 96
164 0 74 -47 153 -110 185 -53 27 -136 27 -193 -1 l-44 -22 -244 131 -244 131
3 45 c12 165 -150 277 -296 205z m486 -464 c166 -89 242 -135 242 -146 0 -18
-86 -22 -892 -35 -365 -6 -378 -6 -378 12 0 14 63 54 244 157 135 75 248 137
253 137 5 0 26 -9 48 -20 55 -28 130 -27 186 4 24 14 47 24 50 23 3 -1 114
-60 247 -132z m242 -272 c-1 -9 -424 -266 -446 -271 -7 -2 -22 6 -34 18 -29
29 -98 60 -135 60 -52 0 -105 -20 -144 -56 -21 -19 -42 -34 -46 -34 -15 0
-466 263 -460 268 12 12 1265 26 1265 15z m160 -415 l0 -277 -42 -19 c-85 -37
-137 -129 -123 -217 l6 -42 -213 -120 c-117 -66 -223 -125 -235 -132 -18 -9
-28 -7 -59 14 -79 54 -158 55 -237 5 l-45 -28 -239 144 -238 144 -6 60 c-7 74
-43 132 -99 160 l-40 21 2 286 3 287 32 18 32 19 254 -145 254 -146 12 -56
c20 -89 110 -164 197 -164 41 0 96 22 130 52 43 38 64 77 73 136 l6 46 235
141 235 141 52 -26 53 -25 0 -277z"/>
</g>
</svg>
