<?xml version="1.0" standalone="no"?>
<!DOCTYPE svg PUBLIC "-//W3C//DTD SVG 20010904//EN"
 "http://www.w3.org/TR/2001/REC-SVG-20010904/DTD/svg10.dtd">
<svg version="1.0" xmlns="http://www.w3.org/2000/svg"
 width="280.000000pt" height="280.000000pt" viewBox="0 0 280.000000 280.000000"
 preserveAspectRatio="xMidYMid meet">
<metadata>
Created by potrace 1.11, written by Peter Selinger 2001-2013
</metadata>
<g transform="translate(0.000000,280.000000) scale(0.100000,-0.100000)"
fill="#000000" stroke="none">
<path d="M1075 2793 c-75 -17 -160 -59 -222 -110 -107 -86 -138 -185 -138
-433 0 -140 4 -178 24 -254 38 -146 85 -247 146 -313 30 -32 54 -61 55 -65 0
-5 27 -8 60 -8 l59 0 -19 -33 c-11 -18 -21 -51 -23 -73 -6 -62 -49 -194 -63
-194 -7 0 -25 10 -39 23 l-27 22 17 65 c23 89 24 155 2 177 -21 22 -32 12 -56
-52 l-18 -48 -43 82 c-59 113 -109 149 -143 100 -18 -24 -9 -65 28 -136 l24
-45 -25 -50 c-30 -59 -33 -94 -11 -140 20 -42 82 -108 101 -108 8 0 19 -6 23
-13 12 -21 102 -86 141 -102 44 -19 72 -19 99 0 21 15 23 14 30 -12 16 -60 -1
-427 -23 -479 -15 -36 -15 -39 -10 -206 4 -147 1 -165 -36 -184 -64 -33 -168
-151 -168 -191 0 -10 48 -13 235 -13 l235 0 1 28 c1 47 9 195 13 257 3 33 5
92 6 130 l1 70 18 -50 c10 -27 37 -131 61 -230 23 -99 44 -186 46 -193 4 -15
334 -18 334 -2 0 26 -61 130 -105 180 -19 21 -29 62 -59 235 -34 196 -39 227
-50 280 -2 11 -9 55 -16 98 l-13 77 36 34 c19 18 58 49 85 70 59 43 125 117
149 166 34 71 21 234 -29 350 -11 24 -22 63 -25 85 -8 58 -41 141 -70 175 -20
25 -32 30 -68 30 -24 0 -47 5 -50 10 -3 5 -2 10 4 10 24 0 90 186 121 341 40
201 14 456 -53 527 -39 41 -128 91 -189 108 -50 13 -313 19 -363 7z m517
-1585 c-8 -8 -9 -4 -5 13 4 13 8 18 11 10 2 -7 -1 -18 -6 -23z"/>
</g>
</svg>
